<svg xmlns="http://www.w3.org/2000/svg" width="112" height="72"><path d="M14.1 50c.6 2.6-2 5.9-4.5 7.5C7 59 3.9 64.3 8.5 67.7c4.6 3.3 14.8.3 16.9-4.8" fill="#fff" stroke="#000" stroke-width="2.5" stroke-linecap="round"/><path d="M71.8 62.3c9.8-3 15-11 20.6-18 3.3 2 6.4 6.1 10.7 5 4.3-1.2 7.8-5.2 5.3-9.7-2.6-4.6-5.5-2.5-8.4-1.7 1.7-2.2 6-8.2-.3-10.3-6.5-1.5-8.3 6-8.7 10.3-9.4-8.6-18.1-18.1-28.5-25.6a40.3 40.3 0 0 0-21.7-6.8c-5.3.4-7 1-12.4 3A27.2 27.2 0 0 0 15.2 21a30 30 0 0 0 .4 31.7 34.8 34.8 0 0 0 18 13.7c6 1.6 17.5 1 19.5-2 1.6 1.9 3.5 3.5 7.5 4.9 4 1.3 11.3 1.3 11.4-4.7 0-6-6.8-5.7-7.9-14" fill="#fff" stroke="#000" stroke-width="2.5" stroke-linecap="round"/><path d="M10.5 49.7l2.3-2.7m-4.6-2.1l3.1-.9m-4-6.2l3.3 1.2M49.2 47.8l5.4 2M49 43.1l6 .5M48.3 39l6-3.3" fill="none" stroke="#000" stroke-width="1.5" stroke-linecap="round"/><path d="M37.6 42.5s-2 3.2-6 3.3c-4 .1-4.8-2.3-4.7-4.4 0-2.2 3.3-2.9 2.4-.7-1 2.2-4.2 4.6-5.9 4.7-1.6.2-1.3-2.6-1.3-2.6" fill="none" stroke="#000" stroke-linecap="round"/><path d="M25.5 31.1c-.8-.7-2.8-.1-3.6.6-.8.7-1.7 1.9-1 2.8.8 1 3.4.5 4.2-.4.9-.8 1.2-2.2.4-3zm10.3 1c-.8 1 0 2.6 1 3.4 1 .8 3.3 1 4 0 .7-.9 0-2.3-1-3-.9-.8-3.2-1.4-4-.4z" stroke="#000"/></svg>