<svg xmlns="http://www.w3.org/2000/svg" width="112" height="72">
<path  d="M40.8 4.3c-5.5.4-7.4 1-12.8 3h-.1c-6 2.7-10.8 7.3-13.8 13-6.1 10.3-6 23 .4 33a36 36 0 0 0 18.7 14.3 36.8 36.8 0 0 0 17.2-.2c1-.3 2-.8 2.7-1.3a17 17 0 0 0 7 4.4h.1c2.2.7 5.2 1 7.9.4 1.3-.3 2.6-1 3.6-2s1.5-2.5 1.6-4.3c0-.5-.2-1-.3-1.4C82.3 60 87.5 52.5 92.6 46l4 3c2 1.2 4.2 2.2 6.8 1.5 2.4-.7 4.6-2.1 6-4.1a7 7 0 0 0 0-7.4c-1.3-2.6-3.3-3.6-5.1-3.5-.5 0-1 .1-1.4.3.4-.9 1-1.8 1.2-2.8.3-1.2.3-2.5-.3-3.8a6 6 0 0 0-3.7-2.8h-.1a7.1 7.1 0 0 0-5 .5 7.8 7.8 0 0 0-3 3c-1 1.8-1.5 3.7-1.8 5.5-8.8-8.2-17-17-27-24.1a41.6 41.6 0 0 0-22.4-7z" color="#000"/>
<path  d="M40.8 6.8a39 39 0 0 1 21 6.5c10.2 7.4 19 16.9 28.4 25.5l1.8 1.7.2-2.5c.2-2 .8-4.8 2-6.8.5-1 1.2-1.7 2-2.1.8-.4 1.8-.6 3.2-.3 1.3.5 1.9 1 2.1 1.6.3.5.3 1.2.1 2a15 15 0 0 1-2.6 4.7l-2.3 3 3.6-1c1.6-.4 3-1 4-1.1 1 0 1.8.2 3 2.2 1 1.9.8 3.4 0 4.8a8 8 0 0 1-4.5 3c-1.7.5-3.1 0-4.7-1-1.6-1.1-3.2-2.7-5-3.8l-1-.5-.7.8C86 50.4 81 57.8 72.2 60.8l-.3-.5c-.7-1-1.7-2-2.6-2.8a10.5 10.5 0 0 1-4-7 1.3 1.3 0 1 0-2.4.3c.6 4.4 2.8 6.8 4.7 8.6 1 .8 1.8 1.6 2.3 2.4.5.7.8 1.5.8 2.8 0 1.2-.3 2-.9 2.6-.5.6-1.3 1-2.3 1.3-2 .5-4.7.2-6.5-.4a14 14 0 0 1-7-4.5l-1-1.3-1 1.4c-.1.3-1 .9-2.3 1.3a35.3 35.3 0 0 1-15.7.2c-7.1-2.4-13.2-7-17.4-13.2-5.9-9.2-6-21-.3-30.4A26 26 0 0 1 29 9.6a34 34 0 0 1 12-2.8z" color="#000" fill="#fff"/>
<path  d="M14 48.7a1.3 1.3 0 0 0-1.1 1.6c.2.8-.2 2-1 3.1a11 11 0 0 1-3 3 8.6 8.6 0 0 0-3.8 5.2c-.6 2.3 0 5.1 2.7 7.1 2.8 2 6.8 2 10.4 1 3.7-1.1 7-3.2 8.4-6.3a1.3 1.3 0 0 0 0-.7h.1v-.1a1.3 1.3 0 0 0-1.3-1L21 58l-4.3-5.3-1.2-1.4v-1.6a1.3 1.3 0 0 0-1.4-1z" color="#000"/>
<path  d="M15 53l3.3 4.2 5 4.6 1 .7c-1 2-3.7 3.9-6.8 4.7-3 1-6.5.8-8.3-.5-1.9-1.4-2-3-1.6-4.5.4-1.5 1.7-3 2.6-3.6A13 13 0 0 0 15 53z" color="#000" fill="#fff"/>
<path d="M54.3 35a.8.8 0 0 0-.4 0l-6 3.3a.8.8 0 1 0 .8 1.4l6-3.3a.8.8 0 0 0-.4-1.5zm-47 2a.8.8 0 0 0-.3 1.5l3.3 1.2a.8.8 0 1 0 .6-1.4L7.6 37a.8.8 0 0 0-.3 0zM49 42.3a.8.8 0 0 0 0 1.5l6 .5a.8.8 0 1 0 0-1.4l-6-.5zm-37.7 1a.8.8 0 0 0-.2 0l-3.1.9a.8.8 0 1 0 .4 1.4l3.1-.9a.8.8 0 0 0-.2-1.5zm1.5 3a.8.8 0 0 0-.6.2L10 49.2a.8.8 0 1 0 1.2 1l2.3-2.7a.8.8 0 0 0-.6-1.3zm36.4.7a.8.8 0 0 0-.3 1.5l5.4 2a.8.8 0 1 0 .6-1.4l-5.4-2a.8.8 0 0 0-.3 0zM28.3 39c-1 .1-1.9 1-1.9 2.4 0 .6 0 1.2.2 1.7l-.3.3c-1 .9-2.3 1.5-3 1.5l-.4-.1-.3-.7v-1.2a.5.5 0 1 0-1-.2v1.6l.5 1.1c.3.3.8.6 1.4.5a7 7 0 0 0 3.4-1.7h.1l.3.5c.8 1 2.2 1.7 4.3 1.6a8.2 8.2 0 0 0 6.4-3.5.5.5 0 1 0-.8-.6s-1.9 3-5.6 3.1c-2 0-3-.5-3.5-1.2-.2-.2-.2-.4-.3-.7.8-.7 1.5-1.6 2-2.5.2-.7.2-1.3-.1-1.7-.4-.4-1-.4-1.4-.3zm.3.9h.3v.6c-.3.5-1 1-1.4 1.6l-.1-.7c0-.8.7-1.4 1.2-1.5zM24.8 30.3h-1.2c-.8.3-1.5.6-2 1s-1 1-1.2 1.5c-.3.6-.4 1.4.1 2 .6.8 1.6.8 2.6.7a4 4 0 0 0 2.3-1 3 3 0 0 0 1-1.8c.1-.7 0-1.4-.5-2-.4-.2-.7-.4-1.1-.4zm13 .8c-.8-.1-1.8 0-2.4.7-.5.7-.5 1.5-.2 2.2.2.8.7 1.4 1.3 1.9.6.5 1.5.7 2.4.8.9 0 1.8-.2 2.3-1 .5-.5.5-1.3.2-2-.2-.6-.7-1.2-1.3-1.6-.6-.5-1.4-.8-2.3-1z" color="#000"/></svg>
